<?xml version="1.0" encoding="iso-8859-1"?>
<!-- Generator: Adobe Illustrator 16.0.0, SVG Export Plug-In . SVG Version: 6.00 Build 0)  -->
<!DOCTYPE svg PUBLIC "-//W3C//DTD SVG 1.1//EN" "http://www.w3.org/Graphics/SVG/1.1/DTD/svg11.dtd">
<svg version="1.1" xmlns="http://www.w3.org/2000/svg" xmlns:xlink="http://www.w3.org/1999/xlink" x="0px" y="0px" width="360px"
	 height="640.001px" viewBox="0 0 360 640.001" style="enable-background:new 0 0 360 640.001;" xml:space="preserve">
<style type="text/css">
    #total_0_x2C_35_sign line { ;fill:none;stroke:#1B75BB;stroke-width:0.9921;stroke-miterlimit:10; }
    #we_1_x2C_2 line { fill:none;stroke:#37B34A;stroke-width:3.4016;stroke-miterlimit:10; }
    #me_0_x2C_8 line { fill:none;stroke:#EF5AA0;stroke-width:2.2677;stroke-miterlimit:10; }
</style>
<g id="me_x5F_100_x25_">
    <!--MECONTENT-->
	<text transform="matrix(1 0 0 1 74.1494 474.7432)"><tspan x="0" y="0" style="fill:#231F20; font-family:'Courier'; font-size:22.6772;">no use last day </tspan><tspan x="13.608" y="27.213" style="fill:#00A900; font-family:'Courier'; font-size:22.6772;">we <!--WE--> </tspan><tspan x="108.868" y="27.213" style="fill:#EA005F; font-family:'Courier'; font-size:22.6772;">me <!--ME--></tspan></text>
</g>
<g id="Layer_3">
	<g id="lasociale">
		<path style="fill:#231F20;" d="M23.81,596.011v21.545h5.128v-21.877c-0.91,0.05-1.821,0.113-2.714,0.175
			C25.429,595.906,24.623,595.963,23.81,596.011z"/>
		<path style="fill:#231F20;" d="M53.138,606.758c0-1.362-0.36-2.051-2.495-2.538c-0.657-0.163-1.516-0.3-2.418-0.404
			c0.074,0.459,0.074,0.871,0.074,1.137l0.002,9.4c0.001,0.527,0.003,1.176-0.094,1.837l0.214,0.462
			c0.446,0.96,1.03,1.446,2.985,1.446c0.623,0,1.342-0.09,2.04-0.299c-0.197-0.392-0.306-0.855-0.306-1.362V606.758z"/>
		<path style="fill:#231F20;" d="M41.436,614.775c0-0.155-0.002-0.319-0.005-0.488c-0.013-0.787-0.029-1.736,0.186-2.64
			c-0.287,0.032-0.587,0.069-0.912,0.114c-4.758,0.646-4.758,2.812-4.758,3.736c0,2.348,2.678,2.6,3.829,2.6
			c0.799,0,1.52-0.052,2.169-0.162c-0.514-1.013-0.511-2.228-0.509-3.022L41.436,614.775z"/>
		<path style="fill:#231F20;" d="M41.272,603.753c-1.984,0.233-3.917,0.765-3.917,1.958c0,1.035,2.145,1.047,2.167,1.047
			c0.702,0,2.997-0.078,2.997-1.085c0-0.271-0.073-0.367-0.417-0.705C41.842,604.714,41.447,604.328,41.272,603.753z"/>
		<path style="fill:#231F20;" d="M70.077,609.648l-4.115-1.493c-1.294-0.428-3.965-1.311-4.043-3.707
			c-1.022,0.659-1.735,1.706-1.735,3.177c0,2.34,1.244,3.662,4.589,4.876c0.572,0.207,1.146,0.391,1.694,0.567
			c2.312,0.743,4.912,1.578,5.24,3.909c0.78-0.697,1.262-1.884,1.262-3.176C72.968,611.856,71.888,610.304,70.077,609.648z"/>
		<path style="fill:#231F20;" d="M84.022,603.979c-1.193,0.294-2.24,0.742-3.08,1.333c-1.677,1.164-2.844,3.347-2.844,5.311
			c0,2.156,0.951,4.194,2.609,5.589c0.912,0.77,2.074,1.238,3.268,1.517c-0.062-0.488-0.062-0.974-0.062-1.427v-10.915
			C83.914,604.861,83.952,604.395,84.022,603.979z"/>
		<path style="fill:#231F20;" d="M94.115,605.316c-0.864-0.607-1.943-1.064-3.173-1.358c0.086,0.577,0.086,1.099,0.086,1.428v10.835
			c0,0.15,0.003,0.302,0.006,0.45c0.008,0.323,0.017,0.689-0.014,1.068c1.213-0.277,2.396-0.748,3.322-1.528
			c1.658-1.395,2.608-3.433,2.608-5.589C96.952,608.658,95.786,606.476,94.115,605.316z"/>
		<path style="fill:#231F20;" d="M108.663,603.864c-5.113,1.045-6.58,4.73-6.58,7.046c0,4.471,3.386,6.515,7.118,7.043
			c-1.046-1.689-1.159-3.906-1.228-5.289C107.744,608.265,107.932,605.597,108.663,603.864z"/>
		<path style="fill:#231F20;" d="M117.511,604.896c-0.258,0.365-0.656,0.681-1.195,0.936c-1.47,0.72-1.7,1.211-1.7,2.119
			c0,1.22,1.06,1.877,2.058,1.877c1.425,0,2.274-0.823,2.274-2.202C118.948,606.373,118.373,605.501,117.511,604.896z"/>
		<path style="fill:#231F20;" d="M126.066,603.993v13.562h5.272v-13.832c-0.814,0.038-1.627,0.082-2.425,0.126
			C127.976,603.899,127.026,603.951,126.066,603.993z"/>
		<path style="fill:#231F20;" d="M128.63,595.237c-3.033,0-3.033,1.241-3.033,1.77c0,1.564,2.122,1.732,3.033,1.732
			c0.913,0,3.034-0.168,3.034-1.732C131.664,596.479,131.664,595.237,128.63,595.237z"/>
		<path style="fill:#231F20;" d="M143.8,614.775c0-0.155-0.002-0.319-0.004-0.488c-0.013-0.787-0.029-1.736,0.185-2.64
			c-0.286,0.032-0.586,0.069-0.91,0.114c-4.759,0.646-4.759,2.812-4.759,3.736c0,2.348,2.678,2.6,3.829,2.6
			c0.799,0,1.52-0.052,2.169-0.162c-0.515-1.013-0.512-2.228-0.509-3.022V614.775z"/>
		<path style="fill:#231F20;" d="M143.637,603.753c-1.984,0.233-3.917,0.765-3.917,1.958c0,1.035,2.146,1.047,2.168,1.047
			c0.703,0,2.996-0.078,2.996-1.085c0-0.271-0.073-0.367-0.417-0.705C144.206,604.714,143.811,604.328,143.637,603.753z"/>
		<path style="fill:#231F20;" d="M155.502,606.758c0-1.362-0.359-2.051-2.495-2.538c-0.657-0.163-1.516-0.3-2.419-0.404
			c0.075,0.459,0.075,0.871,0.075,1.137v9.4c0.003,0.527,0.005,1.176-0.093,1.836l0.215,0.463c0.445,0.96,1.029,1.446,2.984,1.446
			c0.623,0,1.341-0.09,2.039-0.299c-0.196-0.392-0.306-0.855-0.306-1.362V606.758z"/>
		<path style="fill:#231F20;" d="M164.317,596.011v21.545h5.127v-21.877c-0.909,0.05-1.82,0.113-2.713,0.175
			C165.937,595.906,165.13,595.963,164.317,596.011z"/>
		<path style="fill:#231F20;" d="M188.452,604.193c0.058,0.546,0.046,1.071,0.035,1.508c-0.003,0.144-0.007,0.28-0.007,0.407v4.044
			h4.788c-0.264-1.686-0.948-3.115-2.018-4.198C190.488,605.184,189.546,604.594,188.452,604.193z"/>
		<path style="fill:#231F20;" d="M181.76,605.826c-0.006-0.548-0.015-1.228,0.094-1.912c-3.832,0.979-5.58,3.964-5.58,6.925
			c0,3.136,1.365,5.237,4.172,6.427c0.721,0.307,1.432,0.506,2.175,0.632c-0.858-1.591-0.858-3.504-0.858-4.422L181.76,605.826z"/>
	</g>
</g>
</svg>
